<?xml version="1.0" encoding="UTF-8"?>
<svg id="Ebene_1" data-name="Ebene 1" xmlns="http://www.w3.org/2000/svg" viewBox="0 0 120.06 83.9">
  <defs>
    <style>
      .cls-1 {
        fill: #2b2b2a;
      }

      .cls-2 {
        fill: #fff;
      }

      .cls-3 {
        fill: #443188;
      }

      .cls-4 {
        fill: none;
        stroke: #443188;
        stroke-width: .25px;
      }
    </style>
  </defs>
  <rect class="cls-3" width="34.24" height="83.9"/>
  <rect class="cls-2" x="15.6" y="9.51" width="4.96" height="20.73"/>
  <rect class="cls-4" x="15.6" y="9.51" width="4.96" height="20.73"/>
  <g>
    <path class="cls-2" d="M29.12,74.4l-2.11-20.73h-5.69l-2.8,9.88c-.27.99-.42,1.75-.57,2.71h-.06c-.15-.96-.3-1.72-.57-2.71l-2.8-9.88h-5.72l-2.08,20.73h4.97l.78-10.15c.06-.9.09-1.75.09-2.5h.06c.15.66.36,1.54.63,2.5l2.98,10.15h2.8l3.07-10.15c.18-.6.36-1.21.63-2.5h.06c0,.84.03,1.69.09,2.5l.69,10.15h5.54Z"/>
    <path class="cls-4" d="M29.12,74.4l-2.11-20.73h-5.69l-2.8,9.88c-.27.99-.42,1.75-.57,2.71h-.06c-.15-.96-.3-1.72-.57-2.71l-2.8-9.88h-5.72l-2.08,20.73h4.97l.78-10.15c.06-.9.09-1.75.09-2.5h.06c.15.66.36,1.54.63,2.5l2.98,10.15h2.8l3.07-10.15c.18-.6.36-1.21.63-2.5h.06c0,.84.03,1.69.09,2.5l.69,10.15h5.54Z"/>
    <polygon class="cls-2" points="28.38 36.32 25.09 36.32 25.09 42.04 19.4 42.04 19.4 37.05 16.21 37.05 16.21 42.04 10.94 42.04 10.94 36.32 7.65 36.32 7.65 46.95 28.38 46.95 28.38 36.32"/>
    <polygon class="cls-4" points="28.38 36.32 25.09 36.32 25.09 42.04 19.4 42.04 19.4 37.05 16.21 37.05 16.21 42.04 10.94 42.04 10.94 36.32 7.65 36.32 7.65 46.95 28.38 46.95 28.38 36.32"/>
    <path class="cls-1" d="M116.79,74.16l-1.73-14.72h-2.1l-3,10.61c-.17.6-.28,1.11-.39,1.82h-.04c-.11-.71-.21-1.22-.39-1.82l-3-10.61h-2.08l-1.75,14.72h1.69l1.16-11.02c.04-.47.08-1.01.11-1.73h.04c.17.83.26,1.18.41,1.73l3.1,11.02h1.26l3.15-11.02c.15-.53.34-1.39.41-1.73h.04c.02.62.04,1.2.11,1.73l1.11,11.02h1.88ZM99.72,69.97v-10.53h-1.82v10.53c0,1.82-1.26,2.89-2.72,2.89s-2.72-1.07-2.72-2.89v-10.53h-1.97v10.53c0,2.51,1.75,4.43,4.6,4.43s4.62-1.92,4.62-4.43M87.87,74.16v-1.32h-4.86v-5.63h4.37v-1.3h-4.37v-5.14h4.86v-1.32h-6.83v14.72h6.83ZM78.25,70.29c0-4.97-6.16-3.79-6.16-7.37,0-1.5.96-2.35,2.61-2.35.88,0,1.86.28,2.48.66l.51-1.2c-.79-.47-1.93-.81-3.15-.81-2.63,0-4.41,1.52-4.41,3.83,0,4.82,6.1,3.7,6.1,7.34,0,1.43-.98,2.53-2.8,2.53-1.05,0-2.1-.21-2.89-.69l-.58,1.33c.9.53,2.22.81,3.61.81,2.83,0,4.67-1.73,4.67-4.09M67.38,69.97v-10.53h-1.82v10.53c0,1.82-1.26,2.89-2.72,2.89s-2.72-1.07-2.72-2.89v-10.53h-1.97v10.53c0,2.51,1.75,4.43,4.6,4.43s4.62-1.92,4.62-4.43M55.57,74.16l-1.73-14.72h-2.1l-3,10.61c-.17.6-.28,1.11-.39,1.82h-.04c-.11-.71-.21-1.22-.39-1.82l-3-10.61h-2.08l-1.76,14.72h1.69l1.16-11.02c.04-.47.09-1.01.11-1.73h.04c.17.83.26,1.18.41,1.73l3.1,11.02h1.26l3.15-11.02c.15-.53.34-1.39.41-1.73h.04c.02.62.04,1.2.11,1.73l1.11,11.02h1.88Z"/>
    <path class="cls-1" d="M79.75,49.45v-1.32h-4.43v-13.4h-1.97v14.72h6.4ZM70.66,49.45v-1.32h-4.86v-5.63h4.37v-1.3h-4.37v-5.14h4.86v-1.32h-6.83v14.72h6.83ZM59.01,42.05c0,4-1.35,6.25-4.09,6.25-.71,0-1.5-.13-1.91-.3v-11.88c.41-.17,1.2-.3,1.91-.3,2.74,0,4.09,2.23,4.09,6.23M61.02,42.09c0-4.73-2.27-7.58-6.14-7.58-1.33,0-2.72.26-3.81.79v13.57c1.09.53,2.48.79,3.81.79,3.88,0,6.14-2.84,6.14-7.58M48.44,49.45v-1.32h-4.86v-5.63h4.37v-1.3h-4.37v-5.14h4.86v-1.32h-6.83v14.72h6.83Z"/>
    <path class="cls-1" d="M116.25,19.11h-4.37l1.73-5.57c.19-.62.36-1.41.45-1.9h.04c.09.56.26,1.37.43,1.9l1.71,5.57ZM120.06,24.74l-4.99-14.72h-1.86l-4.97,14.72h1.86l1.39-4.45h5.11l1.37,4.45h2.08ZM106.85,24.74v-1.33h-4.43v-13.4h-1.97v14.72h6.4ZM98.05,24.74v-1.33h-4.43v-13.4h-1.97v14.72h6.4ZM88.96,24.74v-1.33h-4.86v-5.63h4.37v-1.3h-4.37v-5.14h4.86v-1.32h-6.82v14.72h6.82ZM77.49,20.78c0,2.12-1.52,2.93-3.47,2.93-.79,0-1.52-.08-2.06-.32v-5.91h1.11c2.96,0,4.41.99,4.41,3.3M77.02,13.63c0,1.91-1.18,2.87-3.94,2.87h-1.11v-5.2c.56-.21,1.26-.32,1.95-.32,2.16,0,3.11.99,3.11,2.66M79.45,20.76c0-1.99-1.6-3.47-3.38-3.81v-.04c1.69-.43,2.82-1.56,2.82-3.4,0-2.16-1.71-3.7-4.94-3.7-1.46,0-2.8.28-3.85.79v13.57c1,.51,2.48.79,4.02.79,3.06,0,5.33-1.24,5.33-4.19M64.24,19.11h-4.37l1.73-5.57c.19-.62.36-1.41.45-1.9h.04c.09.56.26,1.37.43,1.9l1.71,5.57ZM68.05,24.74l-4.99-14.72h-1.86l-4.97,14.72h1.86l1.39-4.45h5.11l1.37,4.45h2.08ZM54.58,20.87c0-4.97-6.17-3.79-6.17-7.37,0-1.5.96-2.35,2.61-2.35.88,0,1.86.28,2.48.66l.51-1.2c-.79-.47-1.93-.81-3.15-.81-2.63,0-4.41,1.52-4.41,3.83,0,4.82,6.1,3.7,6.1,7.34,0,1.43-.99,2.53-2.8,2.53-1.05,0-2.1-.21-2.89-.69l-.58,1.33c.9.53,2.22.81,3.61.81,2.83,0,4.67-1.73,4.67-4.09M43.64,10.02h-1.97v14.72h1.97v-14.72Z"/>
  </g>
</svg>