<?xml version="1.0" encoding="UTF-8"?>
<svg id="Ebene_1" xmlns="http://www.w3.org/2000/svg" version="1.1" viewBox="0 0 120.1 83.9">
  <!-- Generator: Adobe Illustrator 29.2.0, SVG Export Plug-In . SVG Version: 2.1.0 Build 108)  -->
  <defs>
    <style>
      .st0 {
        fill: #443188;
      }

      .st1 {
        fill: none;
        stroke: #443188;
        stroke-width: .2px;
      }

      .st2 {
        fill: #fff;
      }
    </style>
  </defs>
  <rect class="st0" width="34.2" height="83.9"/>
  <rect class="st2" x="15.6" y="9.5" width="5" height="20.7"/>
  <rect class="st1" x="15.6" y="9.5" width="5" height="20.7"/>
  <g>
    <path class="st2" d="M29.1,74.4l-2.1-20.7h-5.7l-2.8,9.9c-.3,1-.4,1.8-.6,2.7h0c-.1-1-.3-1.7-.6-2.7l-2.8-9.9h-5.7l-2.1,20.7h5l.8-10.2c0-.9,0-1.8,0-2.5h0c.1.7.4,1.5.6,2.5l3,10.2h2.8l3.1-10.2c.2-.6.4-1.2.6-2.5h0c0,.8,0,1.7,0,2.5l.7,10.2h5.6Z"/>
    <path class="st1" d="M29.1,74.4l-2.1-20.7h-5.7l-2.8,9.9c-.3,1-.4,1.8-.6,2.7h0c-.1-1-.3-1.7-.6-2.7l-2.8-9.9h-5.7l-2.1,20.7h5l.8-10.2c0-.9,0-1.8,0-2.5h0c.1.7.4,1.5.6,2.5l3,10.2h2.8l3.1-10.2c.2-.6.4-1.2.6-2.5h0c0,.8,0,1.7,0,2.5l.7,10.2h5.6Z"/>
    <polygon class="st2" points="28.4 36.3 25.1 36.3 25.1 42 19.4 42 19.4 37 16.2 37 16.2 42 10.9 42 10.9 36.3 7.7 36.3 7.7 47 28.4 47 28.4 36.3"/>
    <polygon class="st1" points="28.4 36.3 25.1 36.3 25.1 42 19.4 42 19.4 37 16.2 37 16.2 42 10.9 42 10.9 36.3 7.7 36.3 7.7 47 28.4 47 28.4 36.3"/>
    <path class="st2" d="M116.8,74.2l-1.7-14.7h-2.1l-3,10.6c-.2.6-.3,1.1-.4,1.8h0c-.1-.7-.2-1.2-.4-1.8l-3-10.6h-2.1l-1.8,14.7h1.7l1.2-11c0-.5,0-1,.1-1.7h0c.2.8.3,1.2.4,1.7l3.1,11h1.3l3.2-11c.2-.5.3-1.4.4-1.7h0c0,.6,0,1.2.1,1.7l1.1,11h1.9ZM99.7,70v-10.5h-1.8v10.5c0,1.8-1.3,2.9-2.7,2.9s-2.7-1.1-2.7-2.9v-10.5h-2v10.5c0,2.5,1.8,4.4,4.6,4.4s4.6-1.9,4.6-4.4M87.9,74.2v-1.3h-4.9v-5.6h4.4v-1.3h-4.4v-5.1h4.9v-1.3h-6.8v14.7h6.8ZM78.2,70.3c0-5-6.2-3.8-6.2-7.4s1-2.3,2.6-2.3,1.9.3,2.5.7l.5-1.2c-.8-.5-1.9-.8-3.2-.8-2.6,0-4.4,1.5-4.4,3.8,0,4.8,6.1,3.7,6.1,7.3s-1,2.5-2.8,2.5-2.1-.2-2.9-.7l-.6,1.3c.9.5,2.2.8,3.6.8,2.8,0,4.7-1.7,4.7-4.1M67.4,70v-10.5h-1.8v10.5c0,1.8-1.3,2.9-2.7,2.9s-2.7-1.1-2.7-2.9v-10.5h-2v10.5c0,2.5,1.8,4.4,4.6,4.4s4.6-1.9,4.6-4.4M55.6,74.2l-1.7-14.7h-2.1l-3,10.6c-.2.6-.3,1.1-.4,1.8h0c-.1-.7-.2-1.2-.4-1.8l-3-10.6h-2.1l-1.8,14.7h1.7l1.2-11c0-.5,0-1,.1-1.7h0c.2.8.3,1.2.4,1.7l3.1,11h1.3l3.2-11c.2-.5.3-1.4.4-1.7h0c0,.6,0,1.2.1,1.7l1.1,11h1.9Z"/>
    <path class="st2" d="M79.8,49.5v-1.3h-4.4v-13.4h-2v14.7s6.4,0,6.4,0ZM70.7,49.5v-1.3h-4.9v-5.6h4.4v-1.3h-4.4v-5.1h4.9v-1.3h-6.8v14.7h6.8ZM59,42c0,4-1.3,6.2-4.1,6.2s-1.5-.1-1.9-.3v-11.9c.4-.2,1.2-.3,1.9-.3,2.7,0,4.1,2.2,4.1,6.2M61,42.1c0-4.7-2.3-7.6-6.1-7.6s-2.7.3-3.8.8v13.6c1.1.5,2.5.8,3.8.8,3.9,0,6.1-2.8,6.1-7.6M48.4,49.5v-1.3h-4.9v-5.6h4.4v-1.3h-4.4v-5.1h4.9v-1.3h-6.8v14.7h6.8,0Z"/>
    <path class="st2" d="M116.2,19.1h-4.4l1.7-5.6c.2-.6.4-1.4.4-1.9h0c0,.6.3,1.4.4,1.9l1.7,5.6h0ZM120.1,24.7l-5-14.7h-1.9l-5,14.7h1.9l1.4-4.4h5.1l1.4,4.5h2.1ZM106.8,24.7v-1.3h-4.4v-13.4h-2v14.7h6.4ZM98.1,24.7v-1.3h-4.4v-13.4h-2v14.7h6.4ZM89,24.7v-1.3h-4.9v-5.6h4.4v-1.3h-4.4v-5.1h4.9v-1.3h-6.8v14.7s6.8,0,6.8,0ZM77.5,20.8c0,2.1-1.5,2.9-3.5,2.9s-1.5,0-2.1-.3v-5.9h1.1c3,0,4.4,1,4.4,3.3M77,13.6c0,1.9-1.2,2.9-3.9,2.9h-1.1v-5.2c.6-.2,1.3-.3,1.9-.3,2.2,0,3.1,1,3.1,2.7M79.4,20.8c0-2-1.6-3.5-3.4-3.8h0c1.7-.5,2.8-1.6,2.8-3.4s-1.7-3.7-4.9-3.7-2.8.3-3.8.8v13.6c1,.5,2.5.8,4,.8,3.1,0,5.3-1.2,5.3-4.2M64.2,19.1h-4.4l1.7-5.6c.2-.6.4-1.4.5-1.9h0c0,.6.3,1.4.4,1.9l1.7,5.6h0ZM68.1,24.7l-5-14.7h-1.9l-5,14.7h1.9l1.4-4.4h5.1l1.4,4.5h2.1ZM54.6,20.9c0-5-6.2-3.8-6.2-7.4s1-2.3,2.6-2.3,1.9.3,2.5.7l.5-1.2c-.8-.5-1.9-.8-3.2-.8-2.6,0-4.4,1.5-4.4,3.8,0,4.8,6.1,3.7,6.1,7.3s-1,2.5-2.8,2.5-2.1-.2-2.9-.7l-.6,1.3c.9.5,2.2.8,3.6.8,2.8,0,4.7-1.7,4.7-4.1M43.6,10h-2v14.7h2v-14.7Z"/>
  </g>
</svg>