<?xml version="1.0" encoding="UTF-8"?>
<svg id="Ebene_8" data-name="Ebene 8" xmlns="http://www.w3.org/2000/svg" viewBox="0 0 1485.22 1286.92">
  <defs>
    <style>
      .cls-1, .cls-2, .cls-3, .cls-4, .cls-5, .cls-6, .cls-7, .cls-8, .cls-9, .cls-10, .cls-11, .cls-12, .cls-13, .cls-14 {
        fill: none;
      }

      .cls-2 {
        stroke: lime;
      }

      .cls-2, .cls-3, .cls-15, .cls-7, .cls-16, .cls-17, .cls-8, .cls-18, .cls-9, .cls-10, .cls-19, .cls-20, .cls-12, .cls-13, .cls-21, .cls-14 {
        stroke-miterlimit: 10;
      }

      .cls-3, .cls-7, .cls-16, .cls-12 {
        stroke-width: 3px;
      }

      .cls-3, .cls-10 {
        stroke: #666;
      }

      .cls-4, .cls-5 {
        stroke: #e6e6e6;
      }

      .cls-4, .cls-5, .cls-6, .cls-22, .cls-11, .cls-23 {
        stroke-linejoin: round;
      }

      .cls-4, .cls-5, .cls-18, .cls-22, .cls-11, .cls-23 {
        stroke-linecap: round;
      }

      .cls-4, .cls-18, .cls-19, .cls-14 {
        stroke-width: 4px;
      }

      .cls-24 {
        fill: #796eac;
      }

      .cls-5 {
        stroke-width: 14px;
      }

      .cls-6 {
        stroke: gray;
      }

      .cls-6, .cls-15, .cls-20 {
        stroke-width: 7px;
      }

      .cls-25 {
        fill: #403088;
      }

      .cls-26 {
        fill: #9f97c3;
      }

      .cls-15, .cls-16 {
        stroke: #000;
      }

      .cls-15, .cls-16, .cls-17, .cls-18, .cls-27, .cls-22, .cls-19, .cls-20, .cls-21 {
        fill: #fff;
      }

      .cls-7 {
        stroke: #333;
      }

      .cls-28 {
        font-size: 66.33px;
      }

      .cls-28, .cls-29, .cls-30, .cls-31, .cls-32, .cls-33 {
        font-family: Futura-Medium, Futura;
        font-weight: 500;
      }

      .cls-17, .cls-22, .cls-11, .cls-23 {
        stroke-width: 5.67px;
      }

      .cls-17, .cls-22, .cls-11, .cls-23, .cls-21 {
        stroke: #403088;
      }

      .cls-34 {
        fill: #4d4d4d;
      }

      .cls-8 {
        stroke: #f0f;
      }

      .cls-18, .cls-19, .cls-20, .cls-14 {
        stroke: #1d1d1b;
      }

      .cls-29 {
        font-size: 31px;
      }

      .cls-9, .cls-12 {
        stroke: #4d4d4d;
      }

      .cls-30 {
        font-size: 49px;
      }

      .cls-35 {
        fill: #666;
      }

      .cls-31 {
        font-size: 64.59px;
      }

      .cls-36 {
        fill: #b3b3b3;
      }

      .cls-37 {
        letter-spacing: -.1em;
      }

      .cls-38 {
        letter-spacing: -.06em;
      }

      .cls-39 {
        letter-spacing: -.12em;
      }

      .cls-23 {
        fill: #1d1d1b;
      }

      .cls-40 {
        letter-spacing: -.04em;
      }

      .cls-41 {
        letter-spacing: -.04em;
      }

      .cls-42 {
        fill: #333;
      }

      .cls-13 {
        stroke: aqua;
      }

      .cls-21 {
        stroke-width: 2px;
      }

      .cls-32 {
        font-size: 65.18px;
      }

      .cls-33 {
        font-size: 65.36px;
      }
    </style>
  </defs>
  <polygon class="cls-26" points="815.35 288.09 798.05 302.17 684.83 394.34 654.33 419.17 654.09 419.01 654.09 530.14 578.13 481.19 577.28 481.88 547.98 505.73 540.83 511.55 538.17 513.72 424.66 436.71 431.82 430.88 461.96 406.35 538.16 344.32 568.66 319.49 681.88 227.33 698.87 213.5 699.18 213.25 815.35 288.09"/>
  <polygon class="cls-24" points="538.17 513.72 510.33 536.39 510.32 536.39 434.13 598.41 420.55 609.46 403.98 622.95 280.94 723.1 263.67 737.16 147.51 662.31 164.78 648.25 287.81 548.1 317.96 523.56 394.16 461.54 424.66 436.71 538.17 513.72"/>
  <polygon class="cls-7" points="1320.78 638.97 1320.78 848.53 1320.76 848.55 1176.76 755.77 1131.41 726.55 1094.17 702.56 1088.15 698.68 1071.75 688.11 1071.47 687.93 1071.47 478.34 1088.15 489.09 1131.13 516.78 1215.47 571.12 1237.89 585.56 1275.13 609.56 1320.48 638.78 1320.78 638.97"/>
  <polygon class="cls-34" points="656.29 531.55 656.29 741.55 642.71 752.6 626.14 766.09 503.1 866.24 503.03 866.3 485.83 880.3 407.67 829.94 341.83 787.52 359.1 773.46 482.14 673.31 498.71 659.82 512.28 648.77 577.28 595.86 588.48 586.74 614.54 565.53 618.99 561.91 626.14 556.09 654.09 533.34 656.29 531.55"/>
  <polygon class="cls-12" points="950.32 1145.64 881.32 1206.26 786.11 1283.76 786.11 1073.77 803.3 1059.77 803.38 1059.71 881.32 996.26 929.06 961.26 946.6 948.4 946.89 948.58 947.31 973.02 950.32 1145.64"/>
  <polygon class="cls-8" points="946.89 948.58 946.6 948.4 946.88 948.2 946.89 948.58"/>
  <line class="cls-13" x1="959.01" y1="171.15" x2="959.35" y2="170.87"/>
  <polygon class="cls-34" points="698.87 3.5 698.87 213.5 681.88 227.33 568.66 319.49 538.16 344.32 461.96 406.35 431.82 430.88 424.66 436.71 424.66 226.71 698.87 3.5"/>
  <polygon class="cls-42" points="424.66 226.71 424.66 436.71 394.16 461.54 317.96 523.56 287.81 548.1 164.78 648.25 147.51 662.31 3.5 569.53 287.81 338.1 317.96 313.56 394.16 251.54 424.66 226.71"/>
  <polygon class="cls-35" points="959.01 170.65 959.01 171.15 815.35 288.09 699.18 213.25 698.87 213.04 698.87 3.5 699.18 3.25 959.01 170.65"/>
  <polygon class="cls-35" points="1481.78 507.48 1481.72 507.53 1337.78 624.7 1320.78 613.74 1292.43 595.48 1255.19 571.48 1232.77 557.04 1148.43 502.7 1088.77 464.26 1037.51 431.23 1037.51 221.23 1232.77 347.04 1292.43 385.48 1399.19 454.26 1481.78 507.48"/>
  <line class="cls-13" x1="959.01" y1="170.65" x2="959.35" y2="170.87"/>
  <polygon class="cls-3" points="1071.47 478.34 1071.47 688.34 1017.91 731.94 1017.91 608.94 958.6 570.73 958.25 570.5 958.6 570.22 1046.43 498.73 1071.47 478.34"/>
  <polygon class="cls-3" points="732.49 469.52 732.49 679.52 693.91 654.67 693.91 654.66 676.91 643.71 656.29 630.43 656.29 531.55 654.09 530.14 654.09 419.36 654.33 419.17 732.48 469.52 732.49 469.52"/>
  <polygon class="cls-7" points="263.67 737.16 263.67 947.16 197.83 904.74 119.67 854.38 3.5 779.53 3.5 569.53 147.51 662.31 263.67 737.16"/>
  <polygon class="cls-7" points="786.11 1073.77 786.11 1283.77 786.1 1283.77 677.4 1213.73 596.75 1161.77 537.09 1123.33 452.75 1068.99 393.09 1030.55 341.83 997.52 341.83 787.52 407.67 829.94 485.83 880.3 537.09 913.33 596.75 951.77 676.91 1003.41 677.4 1003.73 681.1 1006.11 693.91 1014.36 703.51 1020.55 740.76 1044.55 786.1 1073.77 786.11 1073.77"/>
  <polygon class="cls-34" points="946.6 948.4 929.06 961.26 881.32 996.26 803.38 1059.71 758.03 1030.49 720.78 1006.49 698.37 992.05 693.91 989.18 693.91 785.68 693.97 785.63 821.41 867.74 946.6 948.4"/>
  <polygon class="cls-2" points="881.51 875.66 881.32 875.81 881.32 875.54 881.51 875.66"/>
  <polygon class="cls-34" points="1207.27 940.89 1176.78 965.73 1108.13 1021.64 1100.59 1027.78 1070.45 1052.32 1017.94 1003.33 986.92 974.39 986.91 974.38 986.89 974.37 950.26 940.19 912.4 904.87 881.31 875.86 881.5 875.7 950.15 819.8 980.64 794.96 987.79 789.14 1017.76 764.73 1017.87 764.79 1018.41 765.14 1049 793.61 1086.91 828.88 1170.87 907.02 1207.27 940.89"/>
  <polygon class="cls-36" points="1017.91 764.63 1017.91 764.78 957.97 722.27 959.01 624.7 958.25 572.88 1017.91 613.98 1017.91 764.63"/>
  <polygon class="cls-3" points="1481.72 507.53 1481.72 717.53 1464.48 731.56 1320.78 848.53 1320.78 638.53 1337.78 624.7 1481.72 507.53"/>
  <polygon class="cls-34" points="1037.51 221.23 1037.51 431.23 1020.21 445.31 906.99 537.48 876.49 562.3 800.29 624.33 770.14 648.87 762.99 654.69 732.49 679.52 732.49 469.52 959.01 285.13 1037.51 221.23"/>
  <polygon class="cls-42" points="1070.41 1052.33 1017.91 1018.5 947.31 973.02 946.89 948.58 946.6 948.4 821.41 867.74 821.41 681.9 881.06 720.34 881.07 720.34 881.32 720.5 881.32 875.81 912.4 904.83 950.25 940.16 986.87 974.35 986.89 974.36 986.9 974.37 1017.91 1003.32 1070.41 1052.33"/>
  <polygon class="cls-36" points="1017.91 608.94 987.41 633.77 958.6 657.23 958.6 570.73 1017.91 608.94"/>
  <polygon class="cls-24" points="1337.78 624.7 1320.78 638.53 1320.48 638.78 1275.13 609.56 1237.89 585.56 1215.47 571.12 1131.13 516.78 1088.15 489.09 1071.47 478.34 1046.43 498.73 1037.51 431.23 1088.77 464.26 1148.43 502.7 1232.77 557.04 1255.19 571.48 1292.43 595.48 1320.78 613.74 1337.78 624.7"/>
  <polygon class="cls-36" points="803.3 1059.77 786.11 1073.77 786.1 1073.77 740.76 1044.55 703.51 1020.55 693.91 1014.36 681.1 1006.11 677.4 1003.73 676.91 1003.41 596.75 951.77 537.09 913.33 485.83 880.3 503.03 866.3 503.1 866.24 626.14 766.09 642.71 752.6 656.29 741.55 707.73 774.44 707.55 774.58 693.97 785.63 693.91 785.59 693.91 989.29 733.41 1014.74 803.3 1059.77"/>
  <polygon class="cls-26" points="958.6 570.22 958.25 570.5 958.6 570.73 958.6 657.23 958.25 657.51 911.21 695.8 881.07 720.34 881.06 720.34 821.41 681.9 821.4 681.9 814.25 687.72 783.75 712.55 707.73 774.44 656.29 741.55 656.29 630.43 676.91 643.71 693.91 654.66 693.91 654.67 732.49 679.52 762.99 654.69 770.14 648.87 800.29 624.33 876.49 562.3 906.99 537.48 1020.21 445.31 1037.51 431.23 1046.43 498.73 958.6 570.22"/>
  <polygon class="cls-2" points="693.97 785.63 693.91 785.68 693.91 785.59 693.97 785.63"/>
  <line class="cls-2" x1="577.28" y1="481.88" x2="577.28" y2="481.63"/>
  <polygon class="cls-3" points="577.28 481.88 577.28 595.86 512.28 648.77 498.71 659.82 482.14 673.31 359.1 773.46 341.83 787.52 341.83 883.54 263.67 947.16 263.67 737.16 280.94 723.1 403.98 622.95 420.55 609.46 434.13 598.41 510.32 536.39 510.33 536.39 538.17 513.72 540.83 511.55 547.98 505.73 577.28 481.88"/>
  <polygon class="cls-9" points="656.29 531.55 654.09 533.34 626.14 556.09 618.99 561.91 614.54 565.53 588.48 586.74 577.28 595.86 577.28 481.88 578.13 481.19 654.09 530.14 656.29 531.55"/>
  <polygon class="cls-3" points="959.01 171.15 959.01 285.13 732.49 469.52 732.48 469.52 654.33 419.17 684.83 394.34 798.05 302.17 815.35 288.09 959.01 171.15"/>
  <polygon class="cls-10" points="821.41 681.9 821.41 867.74 693.97 785.63 707.55 774.58 707.73 774.44 783.75 712.55 814.25 687.72 821.4 681.9 821.41 681.9"/>
  <polygon class="cls-26" points="959.25 657.51 959.03 719.76 1018.8 764.72 882.03 875.76 882.32 679.52 959.25 657.51"/>
  <polygon class="cls-6" points="693.91 785.68 946.89 948.58 786.1 1073.77 341.83 787.52 656.29 531.55 578.13 481.19 263.67 737.16 3.5 569.53 698.87 3.5 959.01 171.15 654.09 419.36 732.49 469.52 1037.51 221.23 1481.72 507.53 1320.78 638.97 1071.47 478.34 958.25 570.5 1017.91 608.94 881.32 720.5 821.4 681.9 693.91 785.68"/>
  <polyline class="cls-1" points="853.67 867.74 821.41 847.12 707.73 774.44"/>
  <polyline class="cls-5" points="882.32 873.54 882.32 721.77 949.93 666.58 1018.91 610.27 1018.8 762.72"/>
  <g>
    <rect class="cls-25" x="1208.79" y="384.57" width="213.64" height="213.64"/>
    <polygon class="cls-22" points="1315.61 404.97 1325.6 445.66 1351.27 412.55 1343.85 453.78 1380.77 433.98 1357.22 468.63 1399 465.56 1363.4 487.63 1402.82 501.82 1361.31 507.51 1391.55 536.5 1351.32 524.81 1367.15 563.6 1335.15 536.55 1333.84 578.43 1315.61 540.71 1297.38 578.43 1296.06 536.55 1264.06 563.6 1279.9 524.81 1239.67 536.5 1269.91 507.51 1228.4 501.82 1267.82 487.63 1232.21 465.56 1273.99 468.63 1250.44 433.98 1287.36 453.78 1279.94 412.55 1305.62 445.66 1315.61 404.97"/>
    <g>
      <circle class="cls-22" cx="1315.61" cy="491.28" r="34.99"/>
      <path class="cls-11" d="M1285.53,474.13c11.84-11.84,31.03-11.84,42.87,0,9.47,9.47,9.47,24.82,0,34.29-7.58,7.58-19.86,7.58-27.43,0-6.06-6.06-6.06-15.89,0-21.95,4.85-4.85,12.71-4.85,17.56,0"/>
    </g>
    <circle class="cls-15" cx="1393.52" cy="567.75" r="53.38"/>
    <text class="cls-28" transform="translate(1359.62 592.04)"><tspan class="cls-39" x="0" y="0">R</tspan><tspan x="31.98" y="0">1</tspan></text>
  </g>
  <g>
    <rect class="cls-25" x="793.15" y="382.4" width="213.64" height="213.64"/>
    <path class="cls-22" d="M867.68,405.37h64.49c9.31,0,16.87,7.56,16.87,16.87v15.97h-98.24v-15.97c0-9.31,7.56-16.87,16.87-16.87Z" transform="translate(1799.84 843.59) rotate(-180)"/>
    <path class="cls-22" d="M863.51,567.77h72.83c9.31,0,16.87,7.56,16.87,16.87h-106.58c0-9.31,7.56-16.87,16.87-16.87Z"/>
    <path class="cls-22" d="M877.61,550.9h44.63c9.31,0,16.87,7.56,16.87,16.87h-78.38c0-9.31,7.56-16.87,16.87-16.87Z"/>
    <path class="cls-22" d="M877.61,429.78h44.63c9.31,0,16.87,7.56,16.87,16.87h-78.38c0-9.31,7.56-16.87,16.87-16.87Z" transform="translate(1799.84 876.43) rotate(-180)"/>
    <rect class="cls-22" x="870.45" y="446.65" width="19.65" height="104.24"/>
    <rect class="cls-22" x="890.1" y="446.65" width="19.65" height="104.24"/>
    <rect class="cls-22" x="909.75" y="446.65" width="19.65" height="104.24"/>
    <g>
      <circle class="cls-22" cx="944.86" cy="429.2" r="25.14"/>
      <path class="cls-11" d="M923.26,416.88c8.5-8.5,22.29-8.5,30.79,0,6.8,6.8,6.8,17.83,0,24.64-5.44,5.44-14.27,5.44-19.71,0-4.35-4.35-4.35-11.41,0-15.77,3.48-3.48,9.13-3.48,12.61,0"/>
    </g>
    <g>
      <circle class="cls-22" cx="856.27" cy="429.2" r="25.14"/>
      <path class="cls-11" d="M877.88,416.88c-8.5-8.5-22.29-8.5-30.79,0-6.8,6.8-6.8,17.83,0,24.64,5.44,5.44,14.27,5.44,19.71,0,4.35-4.35,4.35-11.41,0-15.77-3.48-3.48-9.13-3.48-12.61,0"/>
    </g>
    <rect class="cls-22" x="834.09" y="397.04" width="133" height="11.25" rx="5.62" ry="5.62"/>
    <circle class="cls-15" cx="982.15" cy="571.66" r="51.97"/>
    <text class="cls-31" transform="translate(944.06 595.32)"><tspan class="cls-40" x="0" y="0">R</tspan><tspan x="36.3" y="0">2</tspan></text>
  </g>
  <g>
    <rect class="cls-25" x="561.06" y="32.26" width="213.64" height="213.64"/>
    <path class="cls-17" d="M658.84,70.54v81.35h13.71l-1.01,6.64,6.43,4.7v5.83l3.92,4.05c1.38,7.2,4.4,10.01,6.11,11.18,8.59,5.88,26.11-.64,41.7-18.8,4.02,8.88,8.73,21.77,10.97,37.92,2.55,18.37.94,33.79-.94,44.08l28.19-2.55.1-204.89h-109.18s0,30.47,0,30.47"/>
    <path class="cls-23" d="M679.45,121.24c1.03.14,3.72.36,6.64-1.07,2.65-1.3,4.08-3.27,4.65-4.15"/>
    <g>
      <path class="cls-27" d="M714.73,115.84c-36.84,0-66.82-28.49-66.82-63.5,0-4.52.51-9.03,1.51-13.44h118.78v51.5c-12.59,15.94-32.5,25.43-53.47,25.43Z"/>
      <path class="cls-25" d="M765.36,41.73v47.67c-12.09,14.81-30.87,23.6-50.63,23.6-35.28,0-63.98-27.21-63.98-60.67,0-3.56.33-7.11.98-10.6h113.64M771.03,36.06h-123.84c-1.38,5.21-2.12,10.66-2.12,16.27,0,36.64,31.18,66.34,69.65,66.34,23.14,0,43.63-10.76,56.3-27.3v-55.31h0Z"/>
    </g>
    <g>
      <path class="cls-27" d="M768.19,143.9c-14.18-1.97-27.25-9.1-37.08-20.29-10.62-12.1-16.47-27.87-16.47-44.39,0-14.6,4.68-28.86,13.2-40.32h40.35v105Z"/>
      <path class="cls-25" d="M765.36,41.73v98.82c-12.26-2.45-23.49-8.99-32.11-18.81-10.17-11.58-15.77-26.68-15.77-42.52,0-13.51,4.18-26.72,11.81-37.48h36.07M771.03,36.06h-44.59c-9.13,11.75-14.63,26.77-14.63,43.15,0,35.73,26.07,65.02,59.22,67.85V36.06h0Z"/>
    </g>
    <path class="cls-22" d="M708.43,121.3c5.88-10.65,19.29-14.52,29.94-8.64,8.52,4.71,11.62,15.43,6.91,23.95-3.76,6.82-12.34,9.29-19.16,5.53-5.45-3.01-7.44-9.87-4.42-15.33,2.41-4.36,7.9-5.95,12.26-3.54"/>
    <path class="cls-21" d="M569.22,110.12l78.57,91.81c3.19,3.72,8.79,4.16,12.51.97,3.97-3.36,4.15-9.52.41-13.12,0,0-86.77-84.1-86.77-84.1-2.96-2.77-7.32,1.25-4.72,4.43h0Z"/>
    <path class="cls-17" d="M663.45,197.85c3.2.16,5.89,2.28,7.23,4.58,2.07,3.54-.07,5.8,1.45,9.64,2.27,5.73,9.22,6.25,8.92,7.95-.42,2.35-14.36,5.55-22.17-1.93-3.07-2.94-6.63-8.92-4.34-14.22,1.34-3.1,4.8-6.23,8.92-6.02Z"/>
    <circle class="cls-15" cx="749.07" cy="213.83" r="52.59"/>
    <text class="cls-33" transform="translate(712.43 237.77)"><tspan class="cls-37" x="0" y="0">R</tspan><tspan x="32.81" y="0">4</tspan></text>
  </g>
  <g>
    <rect class="cls-25" x="132.79" y="382.93" width="213.64" height="213.64"/>
    <g>
      <path class="cls-22" d="M244.94,442.39c.61.48,4.81,3.63,10.53,2.51,5.72-1.12,8.43-5.61,8.82-6.29"/>
      <path class="cls-17" d="M277.26,404.91h-95.06v171.82c5.41,0,10.81.22,16.22.12,4.98-.09,10.01.06,14.01-3.35,3.02-2.56,4.79-6.38,4.79-10.34,0-7.49-6.07-13.56-13.56-13.56-.4,0-.79.03-1.18.06v-52.16h38.42v37.75c0,11.65,9.45,21.1,21.1,21.1h37.59v-129.12c0-12.33-9.99-22.32-22.32-22.32Z"/>
      <path class="cls-17" d="M202.46,427.42h76.87v60.86c0,14.48-11.76,26.24-26.24,26.24h-50.62v-87.1h0Z"/>
      <ellipse class="cls-17" cx="202.46" cy="452.93" rx="28.77" ry="14.91"/>
      <circle class="cls-17" cx="202.46" cy="452.93" r="9.33"/>
      <ellipse class="cls-17" cx="274.65" cy="462.26" rx="28.77" ry="14.91"/>
      <circle class="cls-17" cx="274.65" cy="462.26" r="9.33"/>
      <polygon class="cls-17" points="254.83 532.16 220.28 532.16 199.91 508.63 275.2 508.63 254.83 532.16"/>
      <path class="cls-17" d="M189.16,507.66l21.89-21.89c4.8-4.8,12.59-4.8,17.39,0l7.86,7.86,7.64-7.64c4.8-4.8,12.59-4.8,17.39,0l22.65,22.65-94.82-.97Z"/>
      <path class="cls-22" d="M265.56,411.8c2.81-11.81,14.67-19.09,26.47-16.28,9.44,2.25,15.28,11.73,13.02,21.18-1.8,7.56-9.39,12.22-16.94,10.42-6.04-1.44-9.78-7.51-8.34-13.55,1.15-4.84,6.01-7.82,10.84-6.67"/>
      <path class="cls-17" d="M274.53,447.71c-15.52,0-28.1,6.68-28.1,14.91h56.21c0-8.23-12.58-14.91-28.1-14.91Z"/>
    </g>
    <circle class="cls-15" cx="319.99" cy="570.53" r="52.45"/>
    <text class="cls-32" transform="translate(283.07 594.41)"><tspan class="cls-38" x="0" y="0">R</tspan><tspan x="35.33" y="0">3</tspan></text>
  </g>
  <line class="cls-4" x1="955.03" y1="815.28" x2="955.03" y2="662.11"/>
  <g>
    <circle class="cls-20" cx="1078.53" cy="763.72" r="75"/>
    <g>
      <path class="cls-19" d="M1118.17,742.74s-.09.1-.14.15c-5.16,5.16-13.52,5.16-18.67,0-5.16-5.16-5.16-13.52,0-18.67.05-.05.1-.09.15-.14l-11.36-11.36-60.62,60.62,11.4,11.4c5.19-4.3,12.89-4.03,17.75.83,4.86,4.86,5.14,12.56.83,17.75l11.4,11.4,60.62-60.62-11.36-11.36Z"/>
      <line class="cls-18" x1="1074.61" y1="740.63" x2="1101.61" y2="767.64"/>
    </g>
  </g>
  <circle class="cls-16" cx="1135.81" cy="812.95" r="31.72"/>
  <text class="cls-29" transform="translate(1124.05 825.37)"><tspan x="0" y="0">A</tspan></text>
  <g>
    <g>
      <circle class="cls-20" cx="789.53" cy="973.26" r="75"/>
      <text class="cls-30" transform="translate(745.24 992.47)"><tspan class="cls-41" x="0" y="0">W</tspan><tspan x="50.24" y="0">C</tspan></text>
    </g>
    <circle class="cls-16" cx="849.81" cy="1020.95" r="31.72"/>
    <text class="cls-29" transform="translate(838.31 1033.06)"><tspan x="0" y="0">C</tspan></text>
  </g>
  <g>
    <g>
      <circle class="cls-20" cx="547.73" cy="759.06" r="75"/>
      <path class="cls-19" d="M570.11,788.12c6.89.45,14.56-9.27,14.98-15.71s-6.57-7.14-13.46-7.59"/>
      <path class="cls-19" d="M520.98,760.2v11.57c0,14.77,11.97,26.75,26.75,26.75h0c14.77,0,26.75-11.97,26.75-26.75v-11.57h-53.49Z"/>
      <path class="cls-14" d="M552.76,747.93c-11.47,0-20.77-9.21-20.77-20.57,0-9.09,7.44-16.46,16.62-16.46,7.34,0,13.29,5.89,13.29,13.17,0,5.82-4.76,10.53-10.64,10.53-4.7,0-8.51-3.77-8.51-8.43"/>
      <line class="cls-19" x1="521.01" y1="799.8" x2="574.07" y2="799.8"/>
    </g>
    <g>
      <circle class="cls-16" cx="610.17" cy="817.61" r="31.72"/>
      <text class="cls-29" transform="translate(601 830.39)"><tspan x="0" y="0">B</tspan></text>
    </g>
  </g>
</svg>